<svg width="72" height="72" viewBox="0 0 72 72" fill="none" xmlns="http://www.w3.org/2000/svg">
<path d="M71.7449 6.02602C71.7451 4.83422 71.4373 3.66915 70.8607 2.67817C70.2841 1.68718 69.4645 0.914791 68.5055 0.458691C67.5465 0.00259148 66.4912 -0.11673 65.4732 0.115817C64.4551 0.348364 63.52 0.922333 62.7861 1.76513L50.3985 15.9814C50.186 15.9551 49.9723 15.9423 49.7586 15.9429C49.0505 15.9417 48.3484 16.0903 47.6872 16.3813C47.2151 15.5337 46.5822 14.8197 45.8358 14.2927C46.8786 12.8425 47.4476 11.0196 47.4442 9.13898V3.98526C47.4442 3.63289 47.3223 3.29495 47.1053 3.04578C46.8883 2.79662 46.594 2.65664 46.2871 2.65664H41.7984C40.8678 2.6535 39.946 2.86245 39.0863 3.27137C38.2266 3.6803 37.4461 4.28106 36.7901 5.03885C36.4466 5.43408 36.1391 5.86858 35.8725 6.33559C35.6059 5.86858 35.2984 5.43408 34.9548 5.03885C34.2988 4.28106 33.5184 3.6803 32.6587 3.27137C31.799 2.86245 30.8771 2.6535 29.9466 2.65664H25.4579C25.151 2.65664 24.8566 2.79662 24.6396 3.04578C24.4226 3.29495 24.3007 3.63289 24.3007 3.98526V9.13898C24.2961 11.019 24.8633 12.8418 25.9046 14.2927C25.1581 14.8197 24.5252 15.5337 24.0531 16.3813C22.8584 15.8576 21.5461 15.8043 20.3222 16.23C19.0984 16.6557 18.0324 17.5361 17.2917 18.733C16.9328 18.6467 16.5672 18.6022 16.2005 18.6001C14.8503 18.6022 13.5431 19.1455 12.5045 20.1361C11.4659 21.1267 10.7611 22.5026 10.5118 24.0262C9.38203 24.2717 8.34141 24.8974 7.52231 25.8239C6.70322 26.7504 6.14268 27.9357 5.91201 29.2291H3.47153C2.55082 29.2291 1.66783 29.649 1.01679 30.3965C0.365749 31.144 0 32.1578 0 33.2149V42.5153C0.00852985 48.6221 2.05076 54.4939 5.70824 58.9277C9.36572 63.3615 14.3615 66.0215 19.672 66.3627V67.7591C19.672 68.8162 20.0377 69.83 20.6888 70.5775C21.3398 71.325 22.2228 71.7449 23.1435 71.7449H48.6014C49.5221 71.7449 50.4051 71.325 51.0561 70.5775C51.7072 69.83 52.0729 68.8162 52.0729 67.7591V66.3627C57.3834 66.0215 62.3792 63.3615 66.0367 58.9277C69.6942 54.4939 71.7364 48.6221 71.7449 42.5153V33.2149C71.7449 32.1578 71.3792 31.144 70.7281 30.3965C70.0771 29.649 69.1941 29.2291 68.2734 29.2291H65.8329C65.6023 27.9357 65.0417 26.7504 64.2226 25.8239C63.4035 24.8974 62.3629 24.2717 61.2331 24.0262C61.0872 23.1565 60.7892 22.3299 60.3572 21.5961L70.2082 10.2869C70.6969 9.72852 71.0843 9.06445 71.3481 8.33309C71.6118 7.60174 71.7467 6.8176 71.7449 6.02602ZM38.4264 6.91752C38.8681 6.40751 39.3937 6.00316 39.9725 5.7279C40.5513 5.45263 41.1719 5.31191 41.7984 5.31388H45.1299V9.13898C45.126 10.5896 44.6246 11.98 43.7343 13.0093C43.6313 13.1275 43.5121 13.2232 43.4011 13.3295C41.9511 13.1314 40.492 13.6021 39.344 14.6381C38.6597 14.0537 37.8681 13.6565 37.0296 13.4769V10.7891C37.0337 9.33792 37.5355 7.94696 38.4264 6.91752ZM28.0118 13.0106C27.1209 11.9811 26.6191 10.5902 26.6151 9.13898V5.31388H29.9466C30.5731 5.31191 31.1937 5.45263 31.7725 5.7279C32.3513 6.00316 32.8768 6.40751 33.3186 6.91752C34.2095 7.94696 34.7113 9.33792 34.7153 10.7891V13.4769C33.8769 13.6565 33.0853 14.0537 32.4009 14.6381C31.253 13.6021 29.7938 13.1314 28.3439 13.3295C28.2351 13.2232 28.1194 13.1275 28.0118 13.0106ZM48.6014 69.0877H23.1435C22.8366 69.0877 22.5423 68.9477 22.3253 68.6986C22.1083 68.4494 21.9864 68.1115 21.9864 67.7591V66.4305H49.7586V67.7591C49.7586 68.1115 49.6367 68.4494 49.4197 68.6986C49.2026 68.9477 48.9083 69.0877 48.6014 69.0877ZM50.9158 63.7732H20.8292C15.9205 63.7665 11.2146 61.5247 7.74365 57.5395C4.2727 53.5543 2.32017 48.1512 2.31435 42.5153V39.0795L3.33151 40.2473C4.59626 41.6994 6.31162 42.5152 8.10023 42.5152C9.88885 42.5152 11.6042 41.6994 12.869 40.2473L14.2252 38.6902C15.0561 37.7365 16.1828 37.2008 17.3576 37.2008C18.5325 37.2008 19.6592 37.7365 20.4901 38.6902L21.8463 40.2473C23.1111 41.6994 24.8264 42.5152 26.6151 42.5152C28.4037 42.5152 30.119 41.6994 31.3838 40.2473L32.74 38.6902C33.5709 37.7365 34.6976 37.2008 35.8725 37.2008C37.0473 37.2008 38.1741 37.7365 39.0049 38.6902L40.3612 40.2473C41.6259 41.6994 43.3413 42.5152 45.1299 42.5152C46.9185 42.5152 48.6339 41.6994 49.8986 40.2473L51.2548 38.6902C52.0857 37.7365 53.2125 37.2008 54.3873 37.2008C55.5621 37.2008 56.6889 37.7365 57.5198 38.6902L58.876 40.2473C60.1407 41.6994 61.8561 42.5152 63.6447 42.5152C65.4333 42.5152 67.1487 41.6994 68.4134 40.2473L69.4306 39.0795V42.5153C69.4248 48.1512 67.4722 53.5543 64.0013 57.5395C60.5303 61.5247 55.8244 63.7665 50.9158 63.7732ZM69.4306 33.2149V35.3221L66.7772 38.3687C65.9463 39.3223 64.8195 39.858 63.6447 39.858C62.4699 39.858 61.3431 39.3223 60.5122 38.3687L59.156 36.8115C57.8913 35.3594 56.1759 34.5436 54.3873 34.5436C52.5987 34.5436 50.8833 35.3594 49.6186 36.8115L48.2624 38.3687C47.4315 39.3223 46.3047 39.858 45.1299 39.858C43.955 39.858 42.8283 39.3223 41.9974 38.3687L40.6412 36.8115C39.3764 35.3594 37.6611 34.5436 35.8725 34.5436C34.0839 34.5436 32.3685 35.3594 31.1037 36.8115L29.7475 38.3687C28.9166 39.3223 27.7899 39.858 26.6151 39.858C25.4402 39.858 24.3135 39.3223 23.4826 38.3687L22.1264 36.8115C20.8616 35.3594 19.1463 34.5436 17.3576 34.5436C15.569 34.5436 13.8537 35.3594 12.5889 36.8115L11.2327 38.3687C10.4018 39.3223 9.27507 39.858 8.10023 39.858C6.9254 39.858 5.79865 39.3223 4.96776 38.3687L2.31435 35.3221V33.2149C2.31435 32.8626 2.43627 32.5246 2.65328 32.2755C2.87029 32.0263 3.16463 31.8863 3.47153 31.8863H68.2734C68.5803 31.8863 68.8746 32.0263 69.0917 32.2755C69.3087 32.5246 69.4306 32.8626 69.4306 33.2149ZM63.4318 29.2291H8.31316C8.55163 28.4546 8.99269 27.7836 9.57598 27.308C10.1593 26.8323 10.8563 26.5752 11.5718 26.5718C11.8787 26.5718 12.173 26.4318 12.39 26.1827C12.607 25.9335 12.7289 25.5956 12.7289 25.2432C12.725 24.5977 12.8587 23.9609 13.1182 23.3882C13.3777 22.8156 13.7552 22.3245 14.2178 21.9577C14.6805 21.5909 15.2142 21.3595 15.7726 21.2838C16.3309 21.208 16.8969 21.2902 17.4213 21.5231C17.6919 21.6409 17.9911 21.638 18.2599 21.515C18.5287 21.3921 18.7477 21.1579 18.8735 20.8587C19.0871 20.3427 19.3953 19.8857 19.777 19.5191C20.1587 19.1525 20.6048 18.8849 21.0849 18.7346C21.565 18.5843 22.0678 18.555 22.5587 18.6485C23.0496 18.742 23.5171 18.9562 23.9293 19.2764C24.0761 19.3905 24.2439 19.4643 24.4196 19.4921C24.5953 19.52 24.7743 19.501 24.9426 19.4368C25.1109 19.3726 25.2641 19.2649 25.3904 19.1218C25.5166 18.9788 25.6126 18.8044 25.6708 18.6121C25.9067 17.8347 26.3468 17.1605 26.9304 16.6824C27.514 16.2044 28.2125 15.946 28.9294 15.9429C29.4239 15.9432 29.9124 16.0667 30.3613 16.3048C30.8102 16.5429 31.2088 16.8899 31.5296 17.322C31.6415 17.4585 31.7765 17.5672 31.9263 17.6416C32.0762 17.7159 32.2377 17.7543 32.4009 17.7543C32.5642 17.7543 32.7257 17.7159 32.8755 17.6416C33.0254 17.5672 33.1604 17.4585 33.2723 17.322C33.5997 16.9024 34.0005 16.5667 34.4486 16.3369C34.8966 16.1072 35.3818 15.9884 35.8725 15.9884C36.3632 15.9884 36.8483 16.1072 37.2964 16.3369C37.7444 16.5667 38.1452 16.9024 38.4726 17.322C38.5845 17.4585 38.7195 17.5672 38.8694 17.6416C39.0192 17.7159 39.1808 17.7543 39.344 17.7543C39.5072 17.7543 39.6688 17.7159 39.8186 17.6416C39.9685 17.5672 40.1035 17.4585 40.2153 17.322C40.5361 16.8899 40.9347 16.5429 41.3836 16.3048C41.8325 16.0667 42.321 15.9432 42.8155 15.9429C43.5334 15.9466 44.2326 16.2064 44.8164 16.6862C45.4001 17.1661 45.8396 17.8423 46.0741 18.6214C46.1326 18.8127 46.2284 18.9861 46.3542 19.1284C46.4801 19.2707 46.6326 19.378 46.8002 19.4421C46.9677 19.5062 47.1458 19.5254 47.3208 19.4983C47.4959 19.4712 47.6632 19.3985 47.8099 19.2857C48.2217 18.964 48.6892 18.7483 49.1804 18.6535C49.6716 18.5587 50.1748 18.587 50.6556 18.7364C51.1364 18.8858 51.5833 19.1528 51.9658 19.5192C52.3482 19.8855 52.6572 20.3425 52.8714 20.8587C52.9973 21.1579 53.2162 21.3921 53.485 21.515C53.7539 21.638 54.0531 21.6409 54.3236 21.5231C54.848 21.2898 55.4141 21.2074 55.9725 21.2831C56.531 21.3587 57.0649 21.59 57.5276 21.9568C57.9903 22.3237 58.3679 22.8149 58.6273 23.3878C58.8867 23.9606 59.0202 24.5976 59.016 25.2432C59.016 25.5956 59.1379 25.9335 59.3549 26.1827C59.5719 26.4318 59.8663 26.5718 60.1732 26.5718C60.8886 26.5752 61.5857 26.8323 62.169 27.308C62.7523 27.7836 63.1933 28.4546 63.4318 29.2291ZM68.572 8.40824L58.7198 19.7175C57.7806 18.9932 56.6758 18.6044 55.5445 18.6001C55.1778 18.6022 54.8122 18.6467 54.4532 18.733C54.0153 18.0274 53.461 17.4274 52.8216 16.9672L64.4223 3.6438C64.9755 3.02836 65.7173 2.68733 66.4876 2.6943C67.2578 2.70127 67.9948 3.05568 68.5395 3.68106C69.0842 4.30644 69.3929 5.15263 69.3989 6.03702C69.405 6.92141 69.108 7.77308 68.572 8.40824Z" fill="#E67F1E"/>
<path d="M37.0296 19.9287H34.7152V22.586H37.0296V19.9287Z" fill="#E67F1E"/>
<path d="M31.2438 22.586H28.9294V25.2432H31.2438V22.586Z" fill="#E67F1E"/>
<path d="M23.1435 23.9146H20.8291V26.5719H23.1435V23.9146Z" fill="#E67F1E"/>
<path d="M50.9157 23.9146H48.6013V26.5719H50.9157V23.9146Z" fill="#E67F1E"/>
<path d="M42.8156 23.9146H40.5012V26.5719H42.8156V23.9146Z" fill="#E67F1E"/>
</svg>
